<svg width="42" height="32" viewBox="0 0 42 32" fill="none" xmlns="http://www.w3.org/2000/svg">
<path d="M20.7416 20.6562C20.7723 20.6861 20.8115 20.7103 20.8563 20.7269C20.9011 20.7435 20.9502 20.7522 21 20.7522C21.0498 20.7522 21.0989 20.7435 21.1437 20.7269C21.1885 20.7103 21.2277 20.6861 21.2584 20.6562L25.8521 16.2281C26.0203 16.0656 25.8686 15.825 25.5938 15.825H22.5545V5.25C22.5545 5.1125 22.4068 5 22.2264 5H19.7654C19.585 5 19.4373 5.1125 19.4373 5.25V15.8219H16.4062C16.1314 15.8219 15.9797 16.0625 16.1479 16.225L20.7416 20.6562ZM36.0117 19.5625H33.5508C33.3703 19.5625 33.2227 19.675 33.2227 19.8125V24.625H8.77734V19.8125C8.77734 19.675 8.62969 19.5625 8.44922 19.5625H5.98828C5.80781 19.5625 5.66016 19.675 5.66016 19.8125V26C5.66016 26.5531 6.24668 27 6.97266 27H35.0273C35.7533 27 36.3398 26.5531 36.3398 26V19.8125C36.3398 19.675 36.1922 19.5625 36.0117 19.5625Z" fill="white"/>
</svg>
