<svg width="54" height="53" viewBox="0 0 54 53" fill="none" xmlns="http://www.w3.org/2000/svg">
<path d="M26.8601 0C19.7827 0 12.9952 2.79196 7.99075 7.76167C2.98629 12.7314 0.174805 19.4718 0.174805 26.5C0.174805 33.5282 2.98629 40.2686 7.99075 45.2383C12.9952 50.208 19.7827 53 26.8601 53C33.9375 53 40.725 50.208 45.7295 45.2383C50.734 40.2686 53.5454 33.5282 53.5454 26.5C53.5454 19.4718 50.734 12.7314 45.7295 7.76167C40.725 2.79196 33.9375 0 26.8601 0V0ZM33.8953 48.1047H33.6867C33.5313 48.1131 33.3759 48.0898 33.2299 48.0364C33.0839 47.9829 32.9504 47.9004 32.8376 47.794C32.7334 47.6848 32.6521 47.5562 32.5983 47.4156C32.5446 47.275 32.5196 47.1252 32.5247 46.9749V43.8671C32.5392 42.836 32.5489 41.7953 32.5489 40.7425C32.545 39.9733 32.4315 39.2084 32.2117 38.4708C32.0047 37.7258 31.5872 37.0553 31.0085 36.5387C32.5583 36.39 34.0819 36.0401 35.5401 35.498C36.7703 35.0338 37.8832 34.3077 38.8006 33.3707C39.7055 32.4264 40.3774 31.2893 40.7656 30.0438C41.2411 28.5212 41.4667 26.936 41.4352 25.3412C41.4423 24.2286 41.245 23.124 40.8529 22.0817C40.4569 21.0314 39.8578 20.0681 39.0893 19.2462C39.2542 18.8319 39.3755 18.4006 39.4483 17.9598C39.6174 16.9503 39.5877 15.9178 39.361 14.9195C39.2395 14.346 39.0749 13.7823 38.8685 13.2331C38.7896 13.2029 38.7056 13.1882 38.6211 13.1898H38.3785C37.869 13.1946 37.362 13.2789 36.8792 13.4355C36.3455 13.5897 35.8215 13.7824 35.3145 14.0113C34.8103 14.2354 34.3195 14.4879 33.8444 14.7677C33.4116 15.0212 32.9869 15.2879 32.5708 15.5675C28.8301 14.5323 24.8756 14.5323 21.1349 15.5675C20.7172 15.2904 20.2925 15.0237 19.8613 14.7677C19.3796 14.4848 18.8805 14.2322 18.3669 14.0113C17.8615 13.7765 17.3373 13.5839 16.7998 13.4355C16.3244 13.2794 15.8278 13.1965 15.3272 13.1898H15.0846C15.0015 13.1894 14.9192 13.2049 14.842 13.2355C14.6314 13.7845 14.4587 14.3472 14.3253 14.9195C14.1149 15.9202 14.0927 16.951 14.2598 17.9598C14.3326 18.4006 14.4514 18.8319 14.6164 19.2462C13.8486 20.0682 13.2503 21.0315 12.8552 22.0817C12.4631 23.124 12.2658 24.2286 12.273 25.3412C12.2409 26.9246 12.4586 28.5032 12.9183 30.0197C13.3234 31.2652 13.9929 32.4095 14.8857 33.3707C15.8075 34.3006 16.9186 35.0258 18.1462 35.498C19.5969 36.052 21.1179 36.4062 22.6657 36.5507C22.2339 36.9386 21.8894 37.418 21.6613 37.948C21.443 38.4756 21.2902 39.0273 21.215 39.591C20.3992 39.9794 19.5069 40.1834 18.6022 40.1885C17.762 40.221 16.9331 39.9882 16.2345 39.5235C15.5634 39.0305 14.9949 38.4128 14.5606 37.7047C14.3664 37.4078 14.1499 37.1259 13.9129 36.8615C13.6625 36.5842 13.3863 36.3309 13.0881 36.105C12.7925 35.8861 12.4686 35.7078 12.125 35.575C11.7878 35.4278 11.4235 35.3516 11.0551 35.351C10.9658 35.3538 10.8767 35.3619 10.7883 35.3751C10.667 35.3751 10.5457 35.3895 10.4292 35.4185C10.3251 35.4452 10.2265 35.4901 10.1381 35.551C10.099 35.5731 10.0664 35.6049 10.0434 35.6434C10.0205 35.6818 10.008 35.7255 10.0071 35.7702C10.0168 35.8766 10.0499 35.9796 10.104 36.072C10.158 36.1644 10.2318 36.2439 10.3201 36.305C10.5239 36.4688 10.6961 36.5941 10.8344 36.6832L10.8974 36.729C11.1958 36.9555 11.4797 37.2012 11.7465 37.4638C11.9988 37.6806 12.2244 37.9263 12.4161 38.1937C12.6174 38.4539 12.7897 38.7382 12.9304 39.0345C13.0929 39.3308 13.2652 39.6705 13.4447 40.056C13.8619 41.1015 14.6043 41.988 15.565 42.5855C16.5717 43.1227 17.7046 43.3901 18.8472 43.3612C19.2354 43.3612 19.6235 43.3371 20.0117 43.2938C20.3901 43.2335 20.771 43.1685 21.1519 43.0938V46.9435C21.1583 47.0984 21.1319 47.2529 21.0743 47.397C21.0167 47.5411 20.9293 47.6716 20.8177 47.7799C20.706 47.8883 20.5727 47.9721 20.4263 48.026C20.28 48.0799 20.1238 48.1026 19.968 48.0927H19.8298C14.6446 46.4291 10.2278 42.9817 7.37488 38.3714C4.52194 33.7611 3.42026 28.2907 4.26821 22.9454C5.11617 17.6 7.85804 12.7309 12.0001 9.21488C16.1422 5.69884 21.4122 3.76687 26.8613 3.76687C32.3104 3.76687 37.5805 5.69884 41.7226 9.21488C45.8646 12.7309 48.6065 17.6 49.4544 22.9454C50.3024 28.2907 49.2007 33.7611 46.3478 38.3714C43.4948 42.9817 39.0781 46.4291 33.8929 48.0927V48.1047H33.8953Z" fill="white"/>
</svg>
