<svg width="116" height="31" viewBox="0 0 116 31" fill="none" xmlns="http://www.w3.org/2000/svg">
<path d="M17.0111 29.316C15.7871 30.012 14.1191 30.36 12.0071 30.36C9.24713 30.36 7.12313 29.7 5.63513 28.38C4.14713 27.036 3.40313 25.032 3.40313 22.368V17.328H0.703125V11.388H3.40313V5.88H11.5391V11.388H15.5711V17.328H11.5391V22.296C11.5391 22.896 11.6951 23.364 12.0071 23.7C12.3191 24.036 12.7271 24.204 13.2311 24.204C13.9271 24.204 14.5391 24.024 15.0671 23.664L17.0111 29.316ZM29.3662 30.576C27.1342 30.576 25.1542 30.06 23.4262 29.028C21.7222 27.972 20.3782 26.46 19.3942 24.492C18.4342 22.5 17.9542 20.136 17.9542 17.4C17.9542 14.664 18.4342 12.312 19.3942 10.344C20.3782 8.352 21.7222 6.84 23.4262 5.808C25.1542 4.752 27.1342 4.224 29.3662 4.224C31.5982 4.224 33.5662 4.752 35.2702 5.808C36.9982 6.84 38.3422 8.352 39.3022 10.344C40.2862 12.312 40.7782 14.664 40.7782 17.4C40.7782 20.136 40.2862 22.5 39.3022 24.492C38.3422 26.46 36.9982 27.972 35.2702 29.028C33.5662 30.06 31.5982 30.576 29.3662 30.576ZM29.3662 23.772C31.2862 23.772 32.2462 21.648 32.2462 17.4C32.2462 13.152 31.2862 11.028 29.3662 11.028C27.4462 11.028 26.4862 13.152 26.4862 17.4C26.4862 21.648 27.4462 23.772 29.3662 23.772ZM57.3159 9.948C59.7399 9.948 61.6839 10.68 63.1479 12.144C64.6359 13.608 65.3799 15.816 65.3799 18.768V30H57.2439V20.172C57.2439 17.916 56.4399 16.788 54.8319 16.788C53.9199 16.788 53.1759 17.112 52.5999 17.76C52.0479 18.384 51.7719 19.38 51.7719 20.748V30H43.6359V3.288H51.7719V11.892C53.2839 10.596 55.1319 9.948 57.3159 9.948ZM94.9773 9.948C97.3533 9.948 99.2493 10.68 100.665 12.144C102.105 13.608 102.825 15.816 102.825 18.768V30H94.6893V20.172C94.6893 17.916 93.9573 16.788 92.4933 16.788C91.7253 16.788 91.1013 17.076 90.6213 17.652C90.1653 18.228 89.9373 19.14 89.9373 20.388V30H81.8013V20.172C81.8013 17.916 81.0693 16.788 79.6053 16.788C78.8373 16.788 78.2133 17.076 77.7333 17.652C77.2773 18.228 77.0493 19.14 77.0493 20.388V30H68.9133V10.308H76.6533V12.144C78.1173 10.68 79.9773 9.948 82.2333 9.948C83.5533 9.948 84.7413 10.2 85.7973 10.704C86.8533 11.184 87.7173 11.928 88.3893 12.936C89.1813 11.976 90.1413 11.244 91.2693 10.74C92.3973 10.212 93.6333 9.948 94.9773 9.948ZM106.355 10.308H114.491V30H106.355V10.308ZM110.423 8.724C108.959 8.724 107.771 8.34 106.859 7.572C105.971 6.78 105.527 5.784 105.527 4.584C105.527 3.384 105.971 2.4 106.859 1.632C107.771 0.839998 108.959 0.443999 110.423 0.443999C111.911 0.443999 113.099 0.815999 113.987 1.56C114.875 2.304 115.319 3.264 115.319 4.44C115.319 5.688 114.875 6.72 113.987 7.536C113.099 8.328 111.911 8.724 110.423 8.724Z" fill="#5E52E0"/>
</svg>
