<svg width="1440" height="1024" viewBox="0 0 1440 1024" fill="none" xmlns="http://www.w3.org/2000/svg">
<rect x="234.764" y="683.187" width="102" height="311" rx="51" transform="rotate(51.168 234.764 683.187)" fill="#FAF197" fill-opacity="0.5"/>
<rect x="477.265" y="683.187" width="102" height="311" rx="51" transform="rotate(51.168 477.265 683.187)" fill="#7AE9D3" fill-opacity="0.5"/>
<rect x="513.265" y="433" width="102" height="311" rx="51" transform="rotate(51.168 513.265 433)" fill="#FF8279" fill-opacity="0.5"/>
<rect x="744.265" y="456.187" width="102" height="311" rx="51" transform="rotate(51.168 744.265 456.187)" fill="#F48EFD" fill-opacity="0.5"/>
<rect x="986.766" y="456.187" width="102" height="311" rx="51" transform="rotate(51.168 986.766 456.187)" fill="#7AE9D3" fill-opacity="0.5"/>
<rect x="1022.77" y="206" width="102" height="311" rx="51" transform="rotate(51.168 1022.77 206)" fill="#ABF5A3" fill-opacity="0.5"/>
<rect x="452.265" y="957.187" width="102" height="311" rx="51" transform="rotate(51.168 452.265 957.187)" fill="#F48EFD" fill-opacity="0.5"/>
<rect x="694.766" y="957.187" width="102" height="311" rx="51" transform="rotate(51.168 694.766 957.187)" fill="#7AE9D3" fill-opacity="0.5"/>
<rect x="730.766" y="707" width="102" height="311" rx="51" transform="rotate(51.168 730.766 707)" fill="#FF8279" fill-opacity="0.5"/>
<rect x="207.267" y="886" width="102" height="311" rx="51" transform="rotate(51.168 207.267 886)" fill="#ABF5A3" fill-opacity="0.5"/>
<rect x="987.265" y="746.187" width="102" height="311" rx="51" transform="rotate(51.168 987.265 746.187)" fill="#5E52E0" fill-opacity="0.5"/>
<rect x="1229.77" y="746.187" width="102" height="311" rx="51" transform="rotate(51.168 1229.77 746.187)" fill="#F48EFD" fill-opacity="0.5"/>
<rect x="1265.77" y="496" width="102" height="311" rx="51" transform="rotate(51.168 1265.77 496)" fill="#FAF197" fill-opacity="0.5"/>
<rect x="1496.77" y="519.187" width="102" height="311" rx="51" transform="rotate(51.168 1496.77 519.187)" fill="#FAF197" fill-opacity="0.5"/>
<rect x="1204.77" y="1020.19" width="102" height="311" rx="51" transform="rotate(51.168 1204.77 1020.19)" fill="#FF8279" fill-opacity="0.5"/>
<rect x="1447.27" y="1020.19" width="102" height="311" rx="51" transform="rotate(51.168 1447.27 1020.19)" fill="#FF8279" fill-opacity="0.5"/>
<rect x="1483.27" y="770" width="102" height="311" rx="51" transform="rotate(51.168 1483.27 770)" fill="#5E52E0" fill-opacity="0.5"/>
<rect x="1276.27" y="247.187" width="102" height="311" rx="51" transform="rotate(51.168 1276.27 247.187)" fill="#5E52E0" fill-opacity="0.5"/>
<rect x="1518.77" y="247.187" width="102" height="311" rx="51" transform="rotate(51.168 1518.77 247.187)" fill="#F48EFD" fill-opacity="0.5"/>
<rect x="1554.77" y="-3" width="102" height="311" rx="51" transform="rotate(51.168 1554.77 -3)" fill="#FAF197" fill-opacity="0.5"/>
</svg>
