<svg width="2195" height="1782" viewBox="0 0 2195 1782" fill="none" xmlns="http://www.w3.org/2000/svg">
<rect x="548.265" y="708" width="102" height="311" rx="51" transform="rotate(51.168 548.265 708)" fill="#FAF197" fill-opacity="0.5"/>
<rect x="804.266" y="724.187" width="102" height="311" rx="51" transform="rotate(51.168 804.266 724.187)" fill="#7AE9D3" fill-opacity="0.5"/>
<rect x="840.266" y="474" width="102" height="311" rx="51" transform="rotate(51.168 840.266 474)" fill="#FF8279" fill-opacity="0.5"/>
<rect x="1135.27" y="247" width="102" height="311" rx="51" transform="rotate(51.168 1135.27 247)" fill="#5E52E0" fill-opacity="0.5"/>
<rect x="1440.27" width="102" height="311" rx="51" transform="rotate(51.168 1440.27 0)" fill="#F48EFD" fill-opacity="0.5"/>
<rect x="1071.27" y="497.187" width="102" height="311" rx="51" transform="rotate(51.168 1071.27 497.187)" fill="#F48EFD" fill-opacity="0.5"/>
<rect x="1313.77" y="497.187" width="102" height="311" rx="51" transform="rotate(51.168 1313.77 497.187)" fill="#7AE9D3" fill-opacity="0.5"/>
<rect x="1364.27" y="263" width="102" height="311" rx="51" transform="rotate(51.168 1364.27 263)" fill="#ABF5A3" fill-opacity="0.5"/>
<rect x="779.266" y="998.187" width="102" height="311" rx="51" transform="rotate(51.168 779.266 998.187)" fill="#F48EFD" fill-opacity="0.5"/>
<rect x="1021.77" y="998.187" width="102" height="311" rx="51" transform="rotate(51.168 1021.77 998.187)" fill="#7AE9D3" fill-opacity="0.5"/>
<rect x="1057.77" y="748" width="102" height="311" rx="51" transform="rotate(51.168 1057.77 748)" fill="#FF8279" fill-opacity="0.5"/>
<rect x="663.265" y="1486" width="102" height="311" rx="51" transform="rotate(51.168 663.265 1486)" fill="#FF8279" fill-opacity="0.5"/>
<rect x="929.265" y="1507" width="102" height="311" rx="51" transform="rotate(51.168 929.265 1507)" fill="#AFE6DB"/>
<rect x="242.265" y="985" width="102" height="311" rx="51" transform="rotate(51.168 242.265 985)" fill="#A19BE2"/>
<rect x="1211.27" y="1291" width="102" height="311" rx="51" transform="rotate(51.168 1211.27 1291)" fill="#A1F3A4" fill-opacity="0.5"/>
<rect x="969.265" y="1257" width="102" height="311" rx="51" transform="rotate(51.168 969.265 1257)" fill="#5E52E0" fill-opacity="0.5"/>
<rect x="534.267" y="927" width="102" height="311" rx="51" transform="rotate(51.168 534.267 927)" fill="#ABF5A3" fill-opacity="0.5"/>
<rect x="255.265" y="1194" width="102" height="311" rx="51" transform="rotate(51.168 255.265 1194)" fill="#F48EFD" fill-opacity="0.5"/>
<rect x="497.265" y="1233" width="102" height="311" rx="51" transform="rotate(51.168 497.265 1233)" fill="#5E52E0" fill-opacity="0.5"/>
<rect x="716.265" y="1257" width="102" height="311" rx="51" transform="rotate(51.168 716.265 1257)" fill="#FAF197" fill-opacity="0.5"/>
<rect x="1314.27" y="787.187" width="102" height="311" rx="51" transform="rotate(51.168 1314.27 787.187)" fill="#5E52E0" fill-opacity="0.5"/>
<rect x="2130.27" y="72" width="102" height="311" rx="51" transform="rotate(51.168 2130.27 72)" fill="#A1F3A4" fill-opacity="0.5"/>
<rect x="1556.77" y="787.187" width="102" height="311" rx="51" transform="rotate(51.168 1556.77 787.187)" fill="#F48EFD" fill-opacity="0.5"/>
<rect x="1592.77" y="537" width="102" height="311" rx="51" transform="rotate(51.168 1592.77 537)" fill="#FAF197" fill-opacity="0.5"/>
<rect x="1823.77" y="560.187" width="102" height="311" rx="51" transform="rotate(51.168 1823.77 560.187)" fill="#FAF197" fill-opacity="0.5"/>
<rect x="2116.27" y="312" width="102" height="311" rx="51" transform="rotate(51.168 2116.27 312)" fill="#7AE9D3" fill-opacity="0.5"/>
<rect x="2066.27" y="560.187" width="102" height="311" rx="51" transform="rotate(51.168 2066.27 560.187)" fill="#FF8279" fill-opacity="0.5"/>
<rect x="1640.27" y="14" width="102" height="311" rx="51" transform="rotate(51.168 1640.27 14)" fill="#FF8279" fill-opacity="0.5"/>
<rect x="1529.27" y="1040" width="102" height="311" rx="51" transform="rotate(51.168 1529.27 1040)" fill="#AFE6DB"/>
<rect x="1251.27" y="1040" width="102" height="311" rx="51" transform="rotate(51.168 1251.27 1040)" fill="#FAF197" fill-opacity="0.5"/>
<rect x="1810.27" y="811" width="102" height="311" rx="51" transform="rotate(51.168 1810.27 811)" fill="#5E52E0" fill-opacity="0.5"/>
<rect x="1603.27" y="288.187" width="102" height="311" rx="51" transform="rotate(51.168 1603.27 288.187)" fill="#5E52E0" fill-opacity="0.5"/>
<rect x="1845.77" y="288.187" width="102" height="311" rx="51" transform="rotate(51.168 1845.77 288.187)" fill="#F48EFD" fill-opacity="0.5"/>
<rect x="1881.77" y="38" width="102" height="311" rx="51" transform="rotate(51.168 1881.77 38)" fill="#FAF197" fill-opacity="0.5"/>
</svg>
