<svg width="2195" height="1782" viewBox="0 0 2195 1782" fill="none" xmlns="http://www.w3.org/2000/svg">
<g clip-path="url(#clip0)">
<path d="M572.495 819.436C594.436 801.774 597.906 769.67 580.244 747.728C562.583 725.787 530.478 722.317 508.537 739.979L345.728 871.03C323.787 888.692 320.317 920.796 337.979 942.737C355.64 964.679 387.745 968.148 409.686 950.487L572.495 819.436Z" fill="#FAF197" fill-opacity="0.3"/>
<path d="M828.496 835.623C850.437 817.962 853.907 785.857 836.245 763.916C818.584 741.975 786.479 738.505 764.538 756.166L601.729 887.218C579.788 904.879 576.318 936.984 593.98 958.925C611.641 980.866 643.746 984.336 665.687 966.674L828.496 835.623Z" fill="#7AE9D3" fill-opacity="0.3"/>
<path d="M864.496 585.436C886.437 567.774 889.907 535.67 872.245 513.728C854.584 491.787 822.479 488.317 800.538 505.979L637.729 637.03C615.788 654.692 612.318 686.796 629.98 708.737C647.641 730.679 679.746 734.148 701.687 716.487L864.496 585.436Z" fill="#FF8279" fill-opacity="0.3"/>
<path d="M1159.5 358.436C1181.44 340.774 1184.91 308.67 1167.25 286.728C1149.59 264.787 1117.48 261.317 1095.54 278.979L932.733 410.03C910.792 427.692 907.322 459.796 924.984 481.737C942.645 503.679 974.75 507.148 996.691 489.487L1159.5 358.436Z" fill="#5E52E0" fill-opacity="0.3"/>
<path d="M1464.5 111.436C1486.44 93.7742 1489.91 61.6698 1472.25 39.7284C1454.59 17.787 1422.48 14.3175 1400.54 31.979L1237.73 163.03C1215.79 180.692 1212.32 212.796 1229.98 234.737C1247.65 256.679 1279.75 260.148 1301.69 242.487L1464.5 111.436Z" fill="#F48EFD" fill-opacity="0.3"/>
<path d="M1095.5 608.623C1117.44 590.962 1120.91 558.857 1103.25 536.916C1085.59 514.975 1053.48 511.505 1031.54 529.166L868.733 660.218C846.792 677.879 843.322 709.984 860.984 731.925C878.645 753.866 910.75 757.336 932.691 739.674L1095.5 608.623Z" fill="#F48EFD" fill-opacity="0.3"/>
<path d="M1338 608.623C1359.94 590.962 1363.41 558.857 1345.75 536.916C1328.09 514.975 1295.98 511.505 1274.04 529.166L1111.23 660.218C1089.29 677.879 1085.82 709.984 1103.48 731.925C1121.15 753.866 1153.25 757.336 1175.19 739.674L1338 608.623Z" fill="#7AE9D3" fill-opacity="0.3"/>
<path d="M1388.5 374.436C1410.44 356.774 1413.91 324.67 1396.25 302.728C1378.59 280.787 1346.48 277.317 1324.54 294.979L1161.73 426.03C1139.79 443.692 1136.32 475.796 1153.98 497.737C1171.65 519.679 1203.75 523.148 1225.69 505.487L1388.5 374.436Z" fill="#ABF5A3" fill-opacity="0.3"/>
<path d="M803.496 1109.62C825.437 1091.96 828.907 1059.86 811.245 1037.92C793.584 1015.97 761.479 1012.5 739.538 1030.17L576.729 1161.22C554.788 1178.88 551.318 1210.98 568.98 1232.92C586.641 1254.87 618.746 1258.34 640.687 1240.67L803.496 1109.62Z" fill="#F48EFD" fill-opacity="0.3"/>
<path d="M1046 1109.62C1067.94 1091.96 1071.41 1059.86 1053.75 1037.92C1036.09 1015.97 1003.98 1012.5 982.042 1030.17L819.233 1161.22C797.292 1178.88 793.822 1210.98 811.484 1232.92C829.145 1254.87 861.25 1258.34 883.191 1240.67L1046 1109.62Z" fill="#7AE9D3" fill-opacity="0.3"/>
<path d="M1082 859.436C1103.94 841.774 1107.41 809.67 1089.75 787.728C1072.09 765.787 1039.98 762.317 1018.04 779.979L855.233 911.03C833.292 928.692 829.822 960.796 847.484 982.737C865.145 1004.68 897.25 1008.15 919.191 990.487L1082 859.436Z" fill="#FF8279" fill-opacity="0.3"/>
<path d="M687.495 1597.44C709.436 1579.77 712.906 1547.67 695.244 1525.73C677.583 1503.79 645.478 1500.32 623.537 1517.98L460.728 1649.03C438.787 1666.69 435.317 1698.8 452.979 1720.74C470.64 1742.68 502.745 1746.15 524.686 1728.49L687.495 1597.44Z" fill="#FF8279" fill-opacity="0.3"/>
<path d="M953.495 1618.44C975.436 1600.77 978.906 1568.67 961.244 1546.73C943.583 1524.79 911.478 1521.32 889.537 1538.98L726.728 1670.03C704.787 1687.69 701.317 1719.8 718.979 1741.74C736.64 1763.68 768.745 1767.15 790.686 1749.49L953.495 1618.44Z" fill="#AFE6DB" fill-opacity="0.3"/>
<path d="M266.495 1096.44C288.436 1078.77 291.906 1046.67 274.244 1024.73C256.583 1002.79 224.478 999.317 202.537 1016.98L39.7283 1148.03C17.7869 1165.69 14.3174 1197.8 31.9789 1219.74C49.6404 1241.68 81.7449 1245.15 103.686 1227.49L266.495 1096.44Z" fill="#A19BE2" fill-opacity="0.3"/>
<path d="M1235.5 1402.44C1257.44 1384.77 1260.91 1352.67 1243.25 1330.73C1225.59 1308.79 1193.48 1305.32 1171.54 1322.98L1008.73 1454.03C986.792 1471.69 983.322 1503.8 1000.98 1525.74C1018.65 1547.68 1050.75 1551.15 1072.69 1533.49L1235.5 1402.44Z" fill="#A1F3A4" fill-opacity="0.3"/>
<path d="M993.495 1368.44C1015.44 1350.77 1018.91 1318.67 1001.24 1296.73C983.583 1274.79 951.478 1271.32 929.537 1288.98L766.728 1420.03C744.787 1437.69 741.317 1469.8 758.979 1491.74C776.64 1513.68 808.745 1517.15 830.686 1499.49L993.495 1368.44Z" fill="#5E52E0" fill-opacity="0.3"/>
<path d="M558.497 1038.44C580.438 1020.77 583.908 988.67 566.246 966.728C548.585 944.787 516.48 941.317 494.539 958.979L331.73 1090.03C309.789 1107.69 306.319 1139.8 323.981 1161.74C341.642 1183.68 373.747 1187.15 395.688 1169.49L558.497 1038.44Z" fill="#ABF5A3" fill-opacity="0.3"/>
<path d="M279.495 1305.44C301.436 1287.77 304.906 1255.67 287.244 1233.73C269.583 1211.79 237.478 1208.32 215.537 1225.98L52.7283 1357.03C30.7869 1374.69 27.3174 1406.8 44.9789 1428.74C62.6404 1450.68 94.7449 1454.15 116.686 1436.49L279.495 1305.44Z" fill="#F48EFD" fill-opacity="0.3"/>
<path d="M521.495 1344.44C543.436 1326.77 546.906 1294.67 529.244 1272.73C511.583 1250.79 479.478 1247.32 457.537 1264.98L294.728 1396.03C272.787 1413.69 269.317 1445.8 286.979 1467.74C304.64 1489.68 336.745 1493.15 358.686 1475.49L521.495 1344.44Z" fill="#5E52E0" fill-opacity="0.3"/>
<path d="M740.495 1368.44C762.436 1350.77 765.906 1318.67 748.244 1296.73C730.583 1274.79 698.478 1271.32 676.537 1288.98L513.728 1420.03C491.787 1437.69 488.317 1469.8 505.979 1491.74C523.64 1513.68 555.745 1517.15 577.686 1499.49L740.495 1368.44Z" fill="#FAF197" fill-opacity="0.3"/>
<path d="M1338.5 898.623C1360.44 880.962 1363.91 848.857 1346.25 826.916C1328.59 804.975 1296.48 801.505 1274.54 819.166L1111.73 950.218C1089.79 967.879 1086.32 999.984 1103.98 1021.92C1121.65 1043.87 1153.75 1047.34 1175.69 1029.67L1338.5 898.623Z" fill="#5E52E0" fill-opacity="0.3"/>
<path d="M2154.5 183.436C2176.44 165.774 2179.91 133.67 2162.25 111.728C2144.59 89.787 2112.48 86.3175 2090.54 103.979L1927.73 235.03C1905.79 252.692 1902.32 284.796 1919.98 306.737C1937.65 328.679 1969.75 332.148 1991.69 314.487L2154.5 183.436Z" fill="#A1F3A4" fill-opacity="0.3"/>
<path d="M1581 898.623C1602.94 880.962 1606.41 848.857 1588.75 826.916C1571.09 804.975 1538.98 801.505 1517.04 819.166L1354.23 950.218C1332.29 967.879 1328.82 999.984 1346.48 1021.92C1364.15 1043.87 1396.25 1047.34 1418.19 1029.67L1581 898.623Z" fill="#F48EFD" fill-opacity="0.3"/>
<path d="M1617 648.436C1638.94 630.774 1642.41 598.67 1624.75 576.728C1607.09 554.787 1574.98 551.317 1553.04 568.979L1390.23 700.03C1368.29 717.692 1364.82 749.796 1382.48 771.737C1400.15 793.679 1432.25 797.148 1454.19 779.487L1617 648.436Z" fill="#FAF197" fill-opacity="0.3"/>
<path d="M1848 671.623C1869.94 653.962 1873.41 621.857 1855.75 599.916C1838.09 577.975 1805.98 574.505 1784.04 592.166L1621.23 723.218C1599.29 740.879 1595.82 772.984 1613.48 794.925C1631.15 816.866 1663.25 820.336 1685.19 802.674L1848 671.623Z" fill="#FAF197" fill-opacity="0.3"/>
<path d="M2140.5 423.436C2162.44 405.774 2165.91 373.67 2148.25 351.728C2130.59 329.787 2098.48 326.317 2076.54 343.979L1913.73 475.03C1891.79 492.692 1888.32 524.796 1905.98 546.737C1923.65 568.679 1955.75 572.148 1977.69 554.487L2140.5 423.436Z" fill="#7AE9D3" fill-opacity="0.3"/>
<path d="M2090.5 671.623C2112.44 653.962 2115.91 621.857 2098.25 599.916C2080.59 577.975 2048.48 574.505 2026.54 592.166L1863.73 723.218C1841.79 740.879 1838.32 772.984 1855.98 794.925C1873.65 816.866 1905.75 820.336 1927.69 802.674L2090.5 671.623Z" fill="#FF8279" fill-opacity="0.3"/>
<path d="M1664.5 125.436C1686.44 107.774 1689.91 75.6698 1672.25 53.7284C1654.59 31.787 1622.48 28.3175 1600.54 45.979L1437.73 177.03C1415.79 194.692 1412.32 226.796 1429.98 248.737C1447.65 270.679 1479.75 274.148 1501.69 256.487L1664.5 125.436Z" fill="#FF8279" fill-opacity="0.3"/>
<path d="M1553.5 1151.44C1575.44 1133.77 1578.91 1101.67 1561.25 1079.73C1543.59 1057.79 1511.48 1054.32 1489.54 1071.98L1326.73 1203.03C1304.79 1220.69 1301.32 1252.8 1318.98 1274.74C1336.65 1296.68 1368.75 1300.15 1390.69 1282.49L1553.5 1151.44Z" fill="#AFE6DB" fill-opacity="0.3"/>
<path d="M1275.5 1151.44C1297.44 1133.77 1300.91 1101.67 1283.25 1079.73C1265.59 1057.79 1233.48 1054.32 1211.54 1071.98L1048.73 1203.03C1026.79 1220.69 1023.32 1252.8 1040.98 1274.74C1058.65 1296.68 1090.75 1300.15 1112.69 1282.49L1275.5 1151.44Z" fill="#FAF197" fill-opacity="0.3"/>
<path d="M1834.5 922.436C1856.44 904.774 1859.91 872.67 1842.25 850.728C1824.59 828.787 1792.48 825.317 1770.54 842.979L1607.73 974.03C1585.79 991.692 1582.32 1023.8 1599.98 1045.74C1617.65 1067.68 1649.75 1071.15 1671.69 1053.49L1834.5 922.436Z" fill="#5E52E0" fill-opacity="0.3"/>
<path d="M1627.5 399.623C1649.44 381.962 1652.91 349.857 1635.25 327.916C1617.59 305.975 1585.48 302.505 1563.54 320.166L1400.73 451.218C1378.79 468.879 1375.32 500.984 1392.98 522.925C1410.65 544.866 1442.75 548.336 1464.69 530.674L1627.5 399.623Z" fill="#5E52E0" fill-opacity="0.3"/>
<path d="M1870 399.623C1891.94 381.962 1895.41 349.857 1877.75 327.916C1860.09 305.975 1827.98 302.505 1806.04 320.166L1643.23 451.218C1621.29 468.879 1617.82 500.984 1635.48 522.925C1653.15 544.866 1685.25 548.336 1707.19 530.674L1870 399.623Z" fill="#F48EFD" fill-opacity="0.3"/>
<path d="M1906 149.436C1927.94 131.774 1931.41 99.6698 1913.75 77.7284C1896.09 55.787 1863.98 52.3175 1842.04 69.979L1679.23 201.03C1657.29 218.692 1653.82 250.796 1671.48 272.737C1689.15 294.679 1721.25 298.148 1743.19 280.487L1906 149.436Z" fill="#FAF197" fill-opacity="0.3"/>
</g>
<defs>
<clipPath id="clip0">
<rect width="2195" height="1782" fill="white"/>
</clipPath>
</defs>
</svg>
