<svg width="297" height="411" viewBox="0 0 297 411" fill="none" xmlns="http://www.w3.org/2000/svg">
<circle cx="92" cy="235" r="60" fill="#F48EFD" fill-opacity="0.5"/>
<path d="M226.5 73L278.895 164.5H174.105L226.5 73Z" fill="#FAF197" fill-opacity="0.5"/>
<rect x="94" y="324" width="203" height="54" fill="#FF8279" fill-opacity="0.5"/>
<rect width="10" height="137" fill="#A1F3A4" fill-opacity="0.5"/>
<rect x="19" width="10" height="137" fill="#A1F3A4" fill-opacity="0.5"/>
<rect x="38" width="10" height="137" fill="#A1F3A4" fill-opacity="0.5"/>
<rect x="57" width="10" height="137" fill="#A1F3A4" fill-opacity="0.5"/>
<rect x="76" width="10" height="137" fill="#A1F3A4" fill-opacity="0.5"/>
<rect x="95" width="10" height="137" fill="#A1F3A4" fill-opacity="0.5"/>
<path d="M79.4225 153.171C79.913 153.396 80.3848 153.659 80.8333 153.959L125.686 134.815L127.287 123L145.208 122.891L144.149 149.989L84.9495 165.645C84.8249 166.056 84.6755 166.46 84.502 166.853C83.6461 168.679 82.2696 170.212 80.5455 171.259C78.8214 172.305 76.8264 172.819 74.8112 172.736C72.796 172.652 70.8504 171.975 69.2186 170.79C67.5869 169.604 66.3419 167.963 65.6399 166.072C64.9379 164.181 64.8103 162.125 65.273 160.162C65.7357 158.199 66.7682 156.416 68.2407 155.038C69.7132 153.659 71.5602 152.747 73.5496 152.415C75.539 152.083 77.5821 152.346 79.4225 153.171Z" fill="#FFB8B8"/>
<path d="M151.726 398.731L139.466 398.73L133.634 351.442L151.728 351.443L151.726 398.731Z" fill="#FFB8B8"/>
<path d="M130.709 395.228H154.353V410.114H115.822C115.822 408.159 116.207 406.224 116.955 404.417C117.703 402.611 118.8 400.97 120.182 399.588C121.565 398.205 123.206 397.109 125.012 396.361C126.818 395.613 128.754 395.228 130.709 395.228Z" fill="#2F2E41"/>
<path d="M199.406 395.267L187.205 396.469L176.764 349.981L194.771 348.207L199.406 395.267Z" fill="#FFB8B8"/>
<path d="M178.147 393.841L201.677 391.523L203.136 406.339L164.791 410.115C164.6 408.17 164.793 406.206 165.361 404.335C165.928 402.464 166.858 400.723 168.099 399.212C169.339 397.701 170.865 396.449 172.589 395.527C174.313 394.606 176.202 394.033 178.147 393.841Z" fill="#2F2E41"/>
<path d="M155.138 72.8447C168.703 72.8447 179.699 61.8484 179.699 48.2837C179.699 34.719 168.703 23.7227 155.138 23.7227C141.574 23.7227 130.577 34.719 130.577 48.2837C130.577 61.8484 141.574 72.8447 155.138 72.8447Z" fill="#FFB8B8"/>
<path d="M136.726 389.168C135.673 389.17 134.652 388.801 133.844 388.125C133.036 387.448 132.493 386.508 132.311 385.47C125.965 350.245 105.223 235.065 104.727 231.875C104.716 231.801 104.711 231.727 104.712 231.653V223.065C104.711 222.752 104.808 222.447 104.991 222.193L107.731 218.355C107.861 218.171 108.032 218.018 108.23 217.91C108.429 217.802 108.649 217.74 108.875 217.73C124.497 216.998 175.659 214.851 178.131 217.939C180.613 221.043 179.736 230.446 179.535 232.3L179.545 232.493L202.53 379.488C202.71 380.66 202.421 381.856 201.726 382.817C201.03 383.778 199.985 384.427 198.815 384.623L184.459 386.988C183.389 387.16 182.294 386.942 181.372 386.374C180.45 385.807 179.762 384.927 179.433 383.895C174.993 369.707 160.104 321.977 154.944 303.508C154.912 303.392 154.838 303.29 154.737 303.224C154.635 303.157 154.513 303.13 154.393 303.147C154.273 303.164 154.163 303.224 154.084 303.316C154.005 303.408 153.962 303.526 153.964 303.647C154.221 321.253 154.844 366.171 155.059 381.684L155.083 383.355C155.092 384.486 154.677 385.58 153.919 386.42C153.161 387.26 152.116 387.785 150.99 387.891L137.146 389.149C137.006 389.162 136.865 389.168 136.726 389.168Z" fill="#2F2E41"/>
<path d="M139.551 82.5021C135.264 85.0501 132.7 89.7325 131.228 94.4972C128.503 103.318 126.863 112.439 126.344 121.657L124.788 149.257L105.533 222.427C122.222 236.547 131.848 233.338 154.313 221.788C176.778 210.238 179.346 225.639 179.346 225.639L183.838 163.381L190.256 95.3484C188.816 93.6136 187.185 92.0457 185.395 90.6743C179.462 86.0611 172.56 82.8546 165.208 81.2964C157.856 79.7382 150.247 79.869 142.953 81.6789L139.551 82.5021Z" fill="#A19AF8"/>
<path d="M176.201 214.711C176.719 214.906 177.221 215.141 177.702 215.415L199.561 173.5L176.201 115L197 128.5L215.981 180L182.795 226.943C182.311 229.019 181.206 230.898 179.629 232.33C178.051 233.763 176.074 234.681 173.961 234.963C171.849 235.245 169.7 234.877 167.802 233.909C165.904 232.94 164.345 231.416 163.334 229.54C162.323 227.664 161.907 225.524 162.141 223.406C162.375 221.288 163.249 219.291 164.646 217.681C166.043 216.071 167.896 214.925 169.961 214.394C172.025 213.864 174.202 213.974 176.201 214.711Z" fill="#FFB8B8"/>
<path d="M189.935 95.6599C200.847 99.511 202.769 141.234 202.769 141.234C189.932 134.173 174.528 145.727 174.528 145.727C174.528 145.727 171.318 134.815 167.467 120.694C166.304 116.723 166.165 112.521 167.063 108.481C167.961 104.441 169.866 100.694 172.602 97.5882C172.602 97.5882 179.024 91.8063 189.935 95.6599Z" fill="#A19AF8"/>
<path d="M177.161 54.7787C174.101 52.3303 169.926 56.7805 169.926 56.7805L167.478 34.747C167.478 34.747 152.177 36.5799 142.384 34.1353C132.592 31.6908 131.062 43.0105 131.062 43.0105C130.557 38.438 130.454 33.83 130.756 29.2396C131.367 23.7312 139.324 18.2228 153.401 14.5503C167.478 10.8777 174.822 26.7912 174.822 26.7912C184.615 31.687 180.221 57.2271 177.161 54.7787Z" fill="#2F2E41"/>
</svg>
