<svg width="133" height="133" viewBox="0 0 133 133" fill="none" xmlns="http://www.w3.org/2000/svg">
<circle cx="66.5" cy="66.5" r="66.5" fill="url(#paint0_linear)"/>
<g filter="url(#filter0_d)">
<mask id="mask0" mask-type="alpha" maskUnits="userSpaceOnUse" x="28" y="39" width="71" height="55">
<rect x="28" y="39" width="70.7643" height="55" rx="5" fill="white"/>
</mask>
<g mask="url(#mask0)">
<rect x="28" y="39" width="70.7643" height="13.6624" fill="#F31EFF"/>
<rect x="28" y="52" width="70.7643" height="41.6879" fill="white"/>
</g>
<rect x="89.5" y="59.5" width="15" height="29" rx="1.5" fill="white" stroke="#F31EFF"/>
<path d="M89 86L105 86.0923L103.667 88H90L89 86Z" fill="#F31EFF"/>
<circle cx="96.8758" cy="87.8758" r="0.875796" fill="white"/>
</g>
<path d="M55.9091 65.4213C55.9091 64.7513 56.1581 64.1087 56.6014 63.6349C57.0447 63.1611 57.6459 62.895 58.2727 62.895C58.5862 62.895 58.8868 62.7619 59.1084 62.525C59.33 62.2881 59.4545 61.9668 59.4545 61.6318C59.4545 61.2968 59.33 60.9755 59.1084 60.7386C58.8868 60.5017 58.5862 60.3687 58.2727 60.3687C57.019 60.3687 55.8166 60.901 54.93 61.8485C54.0435 62.7961 53.5455 64.0812 53.5455 65.4213V69.2108C53.5455 69.8808 53.2964 70.5234 52.8532 70.9971C52.4099 71.4709 51.8087 71.7371 51.1818 71.7371C50.8684 71.7371 50.5678 71.8702 50.3461 72.107C50.1245 72.3439 50 72.6652 50 73.0002C50 73.3352 50.1245 73.6565 50.3461 73.8934C50.5678 74.1303 50.8684 74.2634 51.1818 74.2634C51.8087 74.2634 52.4099 74.5296 52.8532 75.0033C53.2964 75.4771 53.5455 76.1197 53.5455 76.7897V80.5792C53.5455 81.9192 54.0435 83.2044 54.93 84.1519C55.8166 85.0995 57.019 85.6318 58.2727 85.6318C58.5862 85.6318 58.8868 85.4987 59.1084 85.2618C59.33 85.0249 59.4545 84.7037 59.4545 84.3686C59.4545 84.0336 59.33 83.7123 59.1084 83.4755C58.8868 83.2386 58.5862 83.1055 58.2727 83.1055C57.6459 83.1055 57.0447 82.8393 56.6014 82.3656C56.1581 81.8918 55.9091 81.2492 55.9091 80.5792V76.7897C55.9053 76.0704 55.7578 75.3602 55.4766 74.7067C55.1953 74.0532 54.7867 73.4714 54.2782 73.0002C54.7867 72.5291 55.1953 71.9473 55.4766 71.2938C55.7578 70.6403 55.9053 69.9301 55.9091 69.2108V65.4213ZM74.8182 71.7371C74.1913 71.7371 73.5901 71.4709 73.1468 70.9971C72.7036 70.5234 72.4545 69.8808 72.4545 69.2108V65.4213C72.4545 64.0812 71.9565 62.7961 71.07 61.8485C70.1834 60.901 68.981 60.3687 67.7273 60.3687C67.4138 60.3687 67.1132 60.5017 66.8916 60.7386C66.67 60.9755 66.5455 61.2968 66.5455 61.6318C66.5455 61.9668 66.67 62.2881 66.8916 62.525C67.1132 62.7619 67.4138 62.895 67.7273 62.895C68.3541 62.895 68.9553 63.1611 69.3986 63.6349C69.8419 64.1087 70.0909 64.7513 70.0909 65.4213V69.2108C70.0947 69.9301 70.2422 70.6403 70.5234 71.2938C70.8047 71.9473 71.2133 72.5291 71.7218 73.0002C71.2133 73.4714 70.8047 74.0532 70.5234 74.7067C70.2422 75.3602 70.0947 76.0704 70.0909 76.7897V80.5792C70.0909 81.2492 69.8419 81.8918 69.3986 82.3656C68.9553 82.8393 68.3541 83.1055 67.7273 83.1055C67.4138 83.1055 67.1132 83.2386 66.8916 83.4755C66.67 83.7123 66.5455 84.0336 66.5455 84.3686C66.5455 84.7037 66.67 85.0249 66.8916 85.2618C67.1132 85.4987 67.4138 85.6318 67.7273 85.6318C68.981 85.6318 70.1834 85.0995 71.07 84.1519C71.9565 83.2044 72.4545 81.9192 72.4545 80.5792V76.7897C72.4545 76.1197 72.7036 75.4771 73.1468 75.0033C73.5901 74.5296 74.1913 74.2634 74.8182 74.2634C75.1316 74.2634 75.4322 74.1303 75.6539 73.8934C75.8755 73.6565 76 73.3352 76 73.0002C76 72.6652 75.8755 72.3439 75.6539 72.107C75.4322 71.8702 75.1316 71.7371 74.8182 71.7371Z" fill="#F31EFF" fill-opacity="0.59"/>
<defs>
<filter id="filter0_d" x="13" y="28" width="107" height="84.6879" filterUnits="userSpaceOnUse" color-interpolation-filters="sRGB">
<feFlood flood-opacity="0" result="BackgroundImageFix"/>
<feColorMatrix in="SourceAlpha" type="matrix" values="0 0 0 0 0 0 0 0 0 0 0 0 0 0 0 0 0 0 127 0"/>
<feOffset dy="4"/>
<feGaussianBlur stdDeviation="7.5"/>
<feColorMatrix type="matrix" values="0 0 0 0 0 0 0 0 0 0 0 0 0 0 0 0 0 0 0.15 0"/>
<feBlend mode="normal" in2="BackgroundImageFix" result="effect1_dropShadow"/>
<feBlend mode="normal" in="SourceGraphic" in2="effect1_dropShadow" result="shape"/>
</filter>
<linearGradient id="paint0_linear" x1="-21" y1="1.16582e-06" x2="89.5" y2="121" gradientUnits="userSpaceOnUse">
<stop stop-color="#9026B5"/>
<stop offset="0.0001" stop-color="#FF77FA"/>
<stop offset="1" stop-color="#E4AAFF"/>
</linearGradient>
</defs>
</svg>
