<svg width="133" height="133" viewBox="0 0 133 133" fill="none" xmlns="http://www.w3.org/2000/svg">
<circle cx="66.5" cy="66.5" r="66.5" fill="url(#paint0_linear)"/>
<g filter="url(#filter0_d)">
<path fill-rule="evenodd" clip-rule="evenodd" d="M77.1816 43.4518C75.6063 40.57 71.2435 41.5155 71.0025 44.7908L70.9446 45.5861C70.9088 46.0764 70.7637 46.5525 70.5199 46.9794C70.2762 47.4063 69.94 47.7732 69.5359 48.0533C69.1319 48.3334 68.6703 48.5194 68.185 48.5979C67.6997 48.6763 67.203 48.6452 66.7313 48.5067L65.9686 48.2806C62.8147 47.3571 60.3982 51.1107 62.5461 53.5967L63.0659 54.2001C64.4374 55.7907 63.9938 58.2374 62.1515 59.2444L61.4515 59.6263C58.5698 61.2016 59.5152 65.5644 62.7905 65.8054L63.5858 65.8633C64.0761 65.8991 64.5522 66.0442 64.9791 66.288C65.406 66.5317 65.773 66.8679 66.053 67.272C66.3331 67.676 66.5192 68.1376 66.5976 68.6229C66.6761 69.1082 66.6449 69.6049 66.5064 70.0766L66.2803 70.8393C65.3568 73.9931 69.1105 76.4097 71.5965 74.2618L72.1998 73.7419C72.5718 73.4206 73.0111 73.1866 73.4853 73.0571C73.9596 72.9276 74.4568 72.906 74.9405 72.9936C75.4242 73.0813 75.8822 73.2762 76.2808 73.5639C76.6794 73.8516 77.0086 74.2249 77.2441 74.6564L77.626 75.3564C79.2013 78.2381 83.5641 77.2927 83.8051 74.0174L83.863 73.2221C83.8988 72.7318 84.0439 72.2557 84.2877 71.8288C84.5314 71.4019 84.8677 71.0349 85.2717 70.7549C85.6757 70.4748 86.1373 70.2887 86.6226 70.2103C87.1079 70.1318 87.6046 70.163 88.0763 70.3015L88.839 70.5276C91.9929 71.4511 94.4095 67.6974 92.2615 65.2114L91.7417 64.6081C91.4203 64.236 91.1863 63.7968 91.0569 63.3226C90.9274 62.8483 90.9057 62.3511 90.9934 61.8674C91.0811 61.3837 91.2759 60.9257 91.5636 60.5271C91.8513 60.1285 92.2246 59.7993 92.6561 59.5638L93.3561 59.1818C96.2378 57.6065 95.2924 53.2438 92.0171 53.0028L91.2218 52.9449C90.7315 52.9091 90.2554 52.764 89.8285 52.5202C89.4016 52.2764 89.0347 51.9402 88.7546 51.5362C88.4745 51.1322 88.2885 50.6706 88.21 50.1853C88.1316 49.7 88.1627 49.2033 88.3012 48.7316L88.5273 47.9689C89.4508 44.815 85.6971 42.3984 83.2112 44.5464L82.6078 45.0662C82.2358 45.3876 81.7965 45.6215 81.3223 45.751C80.848 45.8805 80.3508 45.9022 79.8671 45.8145C79.3834 45.7268 78.9254 45.532 78.5268 45.2443C78.1282 44.9566 77.799 44.5833 77.5635 44.1518L77.1816 43.4518V43.4518ZM78.8 65.847C80.5088 65.4767 82.0005 64.4428 82.9469 62.9727C83.8934 61.5026 84.2171 59.7167 83.8468 58.0079C83.4765 56.2991 82.4425 54.8074 80.9724 53.861C79.5023 52.9145 77.7164 52.5908 76.0076 52.9611C74.2994 53.3313 72.8082 54.3649 71.8621 55.8345C70.916 57.3041 70.5924 59.0894 70.9626 60.7976C71.3327 62.5058 72.3663 63.997 73.8359 64.9431C75.3056 65.8892 77.0908 66.2128 78.799 65.8426L78.8 65.847Z" fill="white"/>
<path fill-rule="evenodd" clip-rule="evenodd" d="M56.8709 66.7724C56.174 64.4099 52.826 64.4099 52.1291 66.7724L51.9603 67.3461C51.8562 67.6998 51.6742 68.0257 51.4277 68.2999C51.1812 68.5741 50.8765 68.7897 50.5359 68.9308C50.1952 69.0719 49.8273 69.135 49.4592 69.1154C49.091 69.0958 48.7319 68.9941 48.4081 68.8176L47.885 68.5307C45.7199 67.3529 43.3524 69.7204 44.5319 71.8838L44.8171 72.4086C45.5697 73.7924 44.8559 75.5153 43.3456 75.9608L42.7719 76.1296C40.4094 76.8265 40.4094 80.1745 42.7719 80.8714L43.3456 81.0402C43.6993 81.1443 44.0252 81.3263 44.2994 81.5728C44.5736 81.8192 44.7892 82.124 44.9303 82.4646C45.0714 82.8052 45.1345 83.1731 45.1149 83.5413C45.0953 83.9095 44.9936 84.2686 44.8171 84.5924L44.5302 85.1155C43.3524 87.2806 45.7199 89.6481 47.8833 88.4686L48.4081 88.1834C48.7319 88.0069 49.091 87.9052 49.4592 87.8856C49.8273 87.866 50.1952 87.9291 50.5359 88.0702C50.8765 88.2113 51.1812 88.4269 51.4277 88.7011C51.6742 88.9753 51.8562 89.3012 51.9603 89.6549L52.1291 90.2286C52.826 92.5911 56.174 92.5911 56.8709 90.2286L57.0397 89.6549C57.1438 89.3012 57.3258 88.9753 57.5723 88.7011C57.8187 88.4269 58.1235 88.2113 58.4641 88.0702C58.8047 87.9291 59.1726 87.866 59.5408 87.8856C59.909 87.9052 60.2681 88.0069 60.5919 88.1834L61.115 88.4702C63.2801 89.6481 65.6476 87.2805 64.4681 85.1172L64.1829 84.5924C64.0064 84.2686 63.9047 83.9095 63.8851 83.5413C63.8655 83.1731 63.9286 82.8052 64.0697 82.4646C64.2108 82.124 64.4264 81.8192 64.7006 81.5728C64.9748 81.3263 65.3007 81.1443 65.6544 81.0402L66.2281 80.8714C68.5906 80.1745 68.5906 76.8265 66.2281 76.1296L65.6544 75.9608C65.3007 75.8567 64.9748 75.6747 64.7006 75.4282C64.4264 75.1817 64.2108 74.877 64.0697 74.5364C63.9286 74.1957 63.8655 73.8278 63.8851 73.4597C63.9047 73.0915 64.0064 72.7324 64.1829 72.4086L64.4697 71.8855C65.6476 69.7204 63.2801 67.3529 61.1167 68.5324L60.5919 68.8176C60.2681 68.9941 59.909 69.0958 59.5408 69.1154C59.1726 69.135 58.8047 69.0719 58.4641 68.9308C58.1235 68.7897 57.8187 68.5741 57.5723 68.2999C57.3258 68.0257 57.1438 67.6998 57.0397 67.3461L56.8709 66.7724V66.7724ZM54.5 83.4449C55.8113 83.4449 57.0689 82.9239 57.9962 81.9967C58.9234 81.0694 59.4444 79.8118 59.4444 78.5005C59.4444 77.1892 58.9234 75.9315 57.9962 75.0043C57.0689 74.077 55.8113 73.5561 54.5 73.5561C53.1891 73.5561 51.9319 74.0769 51.005 75.0038C50.078 75.9307 49.5573 77.1879 49.5573 78.4988C49.5573 79.8097 50.078 81.0669 51.005 81.9938C51.9319 82.9207 53.1891 83.4415 54.5 83.4415L54.5 83.4449Z" fill="white"/>
</g>
<defs>
<filter id="filter0_d" x="26" y="27.0005" width="87.8076" height="84" filterUnits="userSpaceOnUse" color-interpolation-filters="sRGB">
<feFlood flood-opacity="0" result="BackgroundImageFix"/>
<feColorMatrix in="SourceAlpha" type="matrix" values="0 0 0 0 0 0 0 0 0 0 0 0 0 0 0 0 0 0 127 0"/>
<feOffset dy="4"/>
<feGaussianBlur stdDeviation="7.5"/>
<feColorMatrix type="matrix" values="0 0 0 0 0 0 0 0 0 0 0 0 0 0 0 0 0 0 0.15 0"/>
<feBlend mode="normal" in2="BackgroundImageFix" result="effect1_dropShadow"/>
<feBlend mode="normal" in="SourceGraphic" in2="effect1_dropShadow" result="shape"/>
</filter>
<linearGradient id="paint0_linear" x1="-21" y1="1.16582e-06" x2="89.5" y2="121" gradientUnits="userSpaceOnUse">
<stop stop-color="#FFF72D"/>
<stop offset="0.0001" stop-color="#FFBE73"/>
<stop offset="1" stop-color="#F7FFA0"/>
</linearGradient>
</defs>
</svg>
