<svg width="133" height="133" viewBox="0 0 133 133" fill="none" xmlns="http://www.w3.org/2000/svg">
<circle cx="66.5" cy="66.5" r="66.5" fill="url(#paint0_linear)"/>
<g filter="url(#filter0_d)">
<path d="M82.3194 41.5933C75.3775 41.5933 68.3611 44.0499 68.3611 48.7213V51.6805C69.6076 51.7379 70.8501 51.8622 72.0833 52.0527V48.7213C72.0833 47.5116 75.9731 45.2969 82.3194 45.2969C88.6658 45.2969 92.5556 47.5302 92.5556 48.7213V67.9466C92.5556 68.9516 89.8383 70.6266 85.2972 71.1663V74.8885C91.1225 74.293 96.2778 71.9108 96.2778 67.9094V48.7213C96.2778 44.0499 89.2614 41.5933 82.3194 41.5933Z" fill="white" fill-opacity="0.7"/>
<path d="M40.4445 67.9466V48.7214C40.4445 47.5117 44.3342 45.2969 50.6806 45.2969C57.0269 45.2969 60.9167 47.5303 60.9167 48.7214V52.0528C62.1499 51.8622 63.3924 51.738 64.6389 51.6805V48.7214C64.6389 44.0314 57.6225 41.5747 50.6806 41.5747C43.7386 41.5747 36.7222 44.05 36.7222 48.7214V67.9466C36.7222 71.9666 41.8775 74.3303 47.7028 74.9444V71.2222C43.1617 70.6266 40.4445 68.9516 40.4445 67.9466Z" fill="white" fill-opacity="0.7"/>
<path d="M66.5 54.1934C57.3247 54.1934 50.4014 57.6922 50.4014 62.345V85.2553C50.4014 89.9081 57.3247 93.407 66.5 93.407C75.6753 93.407 82.5986 89.9081 82.5986 85.2553V62.345C82.5986 57.6922 75.6753 54.1934 66.5 54.1934ZM78.8764 68.4681C77.2944 70.3292 72.5114 72.1903 66.5 72.1903C63.9855 72.2164 61.4798 71.8906 59.0555 71.2225V73.9397C61.4914 74.5374 63.9919 74.8312 66.5 74.8145C70.8126 74.9894 75.0914 73.9856 78.8764 71.9111V77.7178C77.2944 79.5789 72.5114 81.44 66.5 81.44C63.9846 81.46 61.4789 81.128 59.0555 80.4536V83.1709C61.4914 83.7685 63.9919 84.0623 66.5 84.0456C70.8126 84.2205 75.0914 83.2168 78.8764 81.1423V85.4042C78.8764 87.1723 73.9444 89.8336 66.5 89.8336C59.0555 89.8336 54.1236 87.1723 54.1236 85.4042V62.345C54.1236 60.577 59.0555 57.9156 66.5 57.9156C73.9444 57.9156 78.8764 60.577 78.8764 62.345V68.4681Z" fill="white"/>
</g>
<defs>
<filter id="filter0_d" x="18" y="23" width="97" height="97" filterUnits="userSpaceOnUse" color-interpolation-filters="sRGB">
<feFlood flood-opacity="0" result="BackgroundImageFix"/>
<feColorMatrix in="SourceAlpha" type="matrix" values="0 0 0 0 0 0 0 0 0 0 0 0 0 0 0 0 0 0 127 0"/>
<feOffset dy="4"/>
<feGaussianBlur stdDeviation="7.5"/>
<feColorMatrix type="matrix" values="0 0 0 0 0 0 0 0 0 0 0 0 0 0 0 0 0 0 0.15 0"/>
<feBlend mode="normal" in2="BackgroundImageFix" result="effect1_dropShadow"/>
<feBlend mode="normal" in="SourceGraphic" in2="effect1_dropShadow" result="shape"/>
</filter>
<linearGradient id="paint0_linear" x1="-21" y1="1.16582e-06" x2="89.5" y2="121" gradientUnits="userSpaceOnUse">
<stop stop-color="#A64646"/>
<stop offset="0.0001" stop-color="#FF77FA"/>
<stop offset="0.0002" stop-color="#FF5B5B"/>
<stop offset="1" stop-color="#FFBCA7"/>
</linearGradient>
</defs>
</svg>
